# xmcd CD database file
# Copyright (C) 1993-2000  Ti Kan
#
# Track frame offsets:
#	183
#	23238
#	46413
#	66418
#	89758
#	116053
#	138680
#	164578
#	187830
#	207798
#	231033
#	247950
#	266388
#	284678
#	302933
#
# Disc length: 4298 seconds
#
# Revision: 1
# Processed by: cddbd v1.4b41PL1 Copyright (c) Steve Scherf et al.
# Submitted via: xmcd 2.6 PL0
#
DISCID=e210c80f
DTITLE=Various Artist - 國 語 景 歌 - 風 雲 榜
DYEAR=1900
DGENRE=
TTITLE0=林 億 蓮 - 愛 上 一 個 不 回 家 的 人H
TTITLE1=劉 德 華 - 我 和 我 追 逐 的 夢
TTITLE2=讓 我 一 次 愛 個 夠
TTITLE3=愛 你 的 夢
TTITLE4=你 冷 不 冷
TTITLE5=明 明 白 白 我 的 心
TTITLE6=颻 洋 過 犬 來 看 你
TTITLE7=哈 薩 雅 其
TTITLE8=風 中 的 承 諾
TTITLE9=變 心 的 翅 膀
TTITLE10=它 給 我 不 同 的 快 樂
TTITLE11=誰 能 了 解 誰 的 寂 寞
TTITLE12=想 眷 你 的 感 覺
TTITLE13=不 會 在 你 面 前 掉 過 淚\
TTITLE14=停 在 我 心 裡 的 溫 柔
EXTD=
EXTT0=
EXTT1=
EXTT2=
EXTT3=
EXTT4=
EXTT5=
EXTT6=
EXTT7=
EXTT8=
EXTT9=
EXTT10=
EXTT11=
EXTT12=
EXTT13=
EXTT14=
PLAYORDER=
